<svg width="433" height="397" viewBox="0 0 433 397" fill="none" xmlns="http://www.w3.org/2000/svg">
<path d="M17.0001 16.4904L17 272.49" stroke="white" stroke-width="32" stroke-linecap="round"/>
<path d="M17.0003 16L143 142" stroke="white" stroke-width="32" stroke-linecap="round"/>
<path d="M235 195L414 16" stroke="white" stroke-width="32" stroke-linecap="round"/>
<path d="M414 16L414 272" stroke="white" stroke-width="32" stroke-linecap="round"/>
<path d="M51.51 99L143.51 191" stroke="white" stroke-width="32" stroke-linecap="round"/>
<path d="M144 190L144 272" stroke="white" stroke-width="32" stroke-linecap="round"/>
<path d="M144 190L318 16" stroke="white" stroke-width="32" stroke-linecap="round"/>
<path d="M179 231H235" stroke="white" stroke-width="32" stroke-linecap="round"/>
<path d="M179 203L179 272" stroke="white" stroke-width="32" stroke-linecap="round"/>
<path d="M179 203L364 18" stroke="white" stroke-width="32" stroke-linecap="round"/>
<path d="M22.82 373.77C20.9533 373.77 18.9933 373.63 16.94 373.35C14.9333 373.117 13.02 372.743 11.2 372.23C9.38 371.717 7.74667 371.11 6.3 370.41C5.04 369.803 4.15333 369.01 3.64 368.03C3.12667 367.003 2.94 365.93 3.08 364.81C3.22 363.69 3.61667 362.71 4.27 361.87C4.92333 360.983 5.78667 360.4 6.86 360.12C7.93333 359.793 9.14667 359.933 10.5 360.54C12.2733 361.38 14.28 362.033 16.52 362.5C18.76 362.967 20.86 363.2 22.82 363.2C25.9 363.2 28.0467 362.803 29.26 362.01C30.52 361.17 31.15 360.143 31.15 358.93C31.15 357.857 30.7067 356.993 29.82 356.34C28.98 355.687 27.4633 355.127 25.27 354.66L17.08 352.91C12.6 351.977 9.26333 350.343 7.07 348.01C4.87667 345.677 3.78 342.667 3.78 338.98C3.78 336.553 4.27 334.36 5.25 332.4C6.27667 330.393 7.7 328.69 9.52 327.29C11.3867 325.89 13.58 324.817 16.1 324.07C18.6667 323.277 21.5133 322.88 24.64 322.88C27.0667 322.88 29.5167 323.16 31.99 323.72C34.51 324.233 36.68 325.027 38.5 326.1C39.5733 326.66 40.3433 327.43 40.81 328.41C41.2767 329.39 41.4633 330.417 41.37 331.49C41.2767 332.517 40.9033 333.427 40.25 334.22C39.6433 335.013 38.8033 335.55 37.73 335.83C36.7033 336.063 35.4667 335.877 34.02 335.27C32.6667 334.663 31.1267 334.22 29.4 333.94C27.72 333.613 26.0867 333.45 24.5 333.45C22.7733 333.45 21.3033 333.66 20.09 334.08C18.8767 334.453 17.9433 335.013 17.29 335.76C16.6833 336.507 16.38 337.37 16.38 338.35C16.38 339.33 16.7767 340.17 17.57 340.87C18.41 341.523 19.9267 342.083 22.12 342.55L30.24 344.3C34.7667 345.28 38.15 346.89 40.39 349.13C42.63 351.37 43.75 354.287 43.75 357.88C43.75 360.307 43.26 362.5 42.28 364.46C41.3 366.42 39.9 368.1 38.08 369.5C36.26 370.853 34.0667 371.903 31.5 372.65C28.9333 373.397 26.04 373.77 22.82 373.77ZM93.905 373.77C88.9117 373.77 84.525 372.72 80.745 370.62C76.965 368.473 74.025 365.487 71.925 361.66C69.8717 357.833 68.845 353.377 68.845 348.29C68.845 344.463 69.4283 340.987 70.595 337.86C71.8083 334.733 73.5117 332.05 75.705 329.81C77.945 327.57 80.605 325.867 83.685 324.7C86.765 323.487 90.1717 322.88 93.905 322.88C98.8983 322.88 103.262 323.93 106.995 326.03C110.775 328.13 113.715 331.093 115.815 334.92C117.915 338.7 118.965 343.157 118.965 348.29C118.965 352.117 118.358 355.593 117.145 358.72C115.978 361.847 114.275 364.553 112.035 366.84C109.842 369.08 107.205 370.807 104.125 372.02C101.045 373.187 97.6383 373.77 93.905 373.77ZM93.905 362.99C96.3783 362.99 98.4783 362.407 100.205 361.24C101.932 360.073 103.262 358.393 104.195 356.2C105.128 354.007 105.595 351.37 105.595 348.29C105.595 343.67 104.568 340.077 102.515 337.51C100.462 334.943 97.5917 333.66 93.905 333.66C91.4783 333.66 89.3783 334.243 87.605 335.41C85.8783 336.53 84.5483 338.187 83.615 340.38C82.6817 342.527 82.215 345.163 82.215 348.29C82.215 352.91 83.2417 356.527 85.295 359.14C87.3483 361.707 90.2183 362.99 93.905 362.99ZM171.519 373.77C166.059 373.77 161.369 372.72 157.449 370.62C153.529 368.52 150.519 365.557 148.419 361.73C146.366 357.903 145.339 353.423 145.339 348.29C145.339 344.463 145.922 340.987 147.089 337.86C148.302 334.733 150.029 332.05 152.269 329.81C154.556 327.57 157.309 325.867 160.529 324.7C163.796 323.487 167.459 322.88 171.519 322.88C173.666 322.88 175.882 323.137 178.169 323.65C180.502 324.117 182.556 324.84 184.329 325.82C185.636 326.52 186.546 327.407 187.059 328.48C187.572 329.553 187.736 330.65 187.549 331.77C187.409 332.89 187.012 333.893 186.359 334.78C185.706 335.667 184.866 336.273 183.839 336.6C182.812 336.88 181.692 336.717 180.479 336.11C179.079 335.457 177.679 334.967 176.279 334.64C174.926 334.267 173.502 334.08 172.009 334.08C169.116 334.08 166.689 334.64 164.729 335.76C162.816 336.833 161.369 338.42 160.389 340.52C159.409 342.62 158.919 345.21 158.919 348.29C158.919 351.37 159.409 353.983 160.389 356.13C161.369 358.23 162.816 359.84 164.729 360.96C166.689 362.033 169.116 362.57 172.009 362.57C173.222 362.57 174.529 362.43 175.929 362.15C177.329 361.823 178.706 361.333 180.059 360.68C181.459 360.073 182.696 359.91 183.769 360.19C184.889 360.47 185.776 361.03 186.429 361.87C187.129 362.71 187.572 363.69 187.759 364.81C187.946 365.883 187.782 366.957 187.269 368.03C186.802 369.103 185.962 369.967 184.749 370.62C183.116 371.6 181.086 372.37 178.659 372.93C176.279 373.49 173.899 373.77 171.519 373.77ZM221.262 373.63C219.208 373.63 217.622 373.07 216.502 371.95C215.382 370.783 214.822 369.15 214.822 367.05V329.6C214.822 327.453 215.382 325.82 216.502 324.7C217.622 323.58 219.208 323.02 221.262 323.02C223.362 323.02 224.948 323.58 226.022 324.7C227.142 325.82 227.702 327.453 227.702 329.6V367.05C227.702 369.15 227.165 370.783 226.092 371.95C225.018 373.07 223.408 373.63 221.262 373.63ZM258.968 373.63C257.521 373.63 256.308 373.303 255.328 372.65C254.348 371.95 253.741 371.017 253.508 369.85C253.274 368.637 253.484 367.283 254.138 365.79L271.568 328.27C272.408 326.45 273.434 325.12 274.648 324.28C275.908 323.44 277.331 323.02 278.918 323.02C280.504 323.02 281.881 323.44 283.048 324.28C284.261 325.12 285.311 326.45 286.198 328.27L303.628 365.79C304.374 367.283 304.631 368.637 304.398 369.85C304.211 371.063 303.628 371.997 302.648 372.65C301.714 373.303 300.548 373.63 299.148 373.63C297.281 373.63 295.834 373.21 294.808 372.37C293.828 371.53 292.941 370.177 292.148 368.31L288.368 359.42L293.268 362.99H264.428L269.398 359.42L265.618 368.31C264.778 370.177 263.914 371.53 263.028 372.37C262.141 373.21 260.788 373.63 258.968 373.63ZM278.778 337.09L270.658 356.48L268.698 353.12H289.068L287.108 356.48L278.918 337.09H278.778ZM336.586 373C334.532 373 332.922 372.44 331.756 371.32C330.636 370.153 330.076 368.543 330.076 366.49V330.09C330.076 327.99 330.636 326.38 331.756 325.26C332.876 324.14 334.462 323.58 336.516 323.58C338.616 323.58 340.202 324.14 341.276 325.26C342.396 326.38 342.956 327.99 342.956 330.09V362.29H360.036C361.809 362.29 363.162 362.757 364.096 363.69C365.076 364.577 365.566 365.883 365.566 367.61C365.566 369.337 365.076 370.667 364.096 371.6C363.162 372.533 361.809 373 360.036 373H336.586ZM409.392 373.77C407.526 373.77 405.566 373.63 403.512 373.35C401.506 373.117 399.592 372.743 397.772 372.23C395.952 371.717 394.319 371.11 392.872 370.41C391.612 369.803 390.726 369.01 390.212 368.03C389.699 367.003 389.512 365.93 389.652 364.81C389.792 363.69 390.189 362.71 390.842 361.87C391.496 360.983 392.359 360.4 393.432 360.12C394.506 359.793 395.719 359.933 397.072 360.54C398.846 361.38 400.852 362.033 403.092 362.5C405.332 362.967 407.432 363.2 409.392 363.2C412.472 363.2 414.619 362.803 415.832 362.01C417.092 361.17 417.722 360.143 417.722 358.93C417.722 357.857 417.279 356.993 416.392 356.34C415.552 355.687 414.036 355.127 411.842 354.66L403.652 352.91C399.172 351.977 395.836 350.343 393.642 348.01C391.449 345.677 390.352 342.667 390.352 338.98C390.352 336.553 390.842 334.36 391.822 332.4C392.849 330.393 394.272 328.69 396.092 327.29C397.959 325.89 400.152 324.817 402.672 324.07C405.239 323.277 408.086 322.88 411.212 322.88C413.639 322.88 416.089 323.16 418.562 323.72C421.082 324.233 423.252 325.027 425.072 326.1C426.146 326.66 426.916 327.43 427.382 328.41C427.849 329.39 428.036 330.417 427.942 331.49C427.849 332.517 427.476 333.427 426.822 334.22C426.216 335.013 425.376 335.55 424.302 335.83C423.276 336.063 422.039 335.877 420.592 335.27C419.239 334.663 417.699 334.22 415.972 333.94C414.292 333.613 412.659 333.45 411.072 333.45C409.346 333.45 407.876 333.66 406.662 334.08C405.449 334.453 404.516 335.013 403.862 335.76C403.256 336.507 402.952 337.37 402.952 338.35C402.952 339.33 403.349 340.17 404.142 340.87C404.982 341.523 406.499 342.083 408.692 342.55L416.812 344.3C421.339 345.28 424.722 346.89 426.962 349.13C429.202 351.37 430.322 354.287 430.322 357.88C430.322 360.307 429.832 362.5 428.852 364.46C427.872 366.42 426.472 368.1 424.652 369.5C422.832 370.853 420.639 371.903 418.072 372.65C415.506 373.397 412.612 373.77 409.392 373.77Z" fill="white"/>
</svg>
