<svg width="2072" height="349" viewBox="0 0 2072 349" fill="none" xmlns="http://www.w3.org/2000/svg">
<path d="M16 22.4904L16 278.49" stroke="white" stroke-width="32" stroke-linecap="round"/>
<path d="M16.0002 22L142 148" stroke="white" stroke-width="32" stroke-linecap="round"/>
<path d="M234 201L413 22" stroke="white" stroke-width="32" stroke-linecap="round"/>
<path d="M413 22L413 278" stroke="white" stroke-width="32" stroke-linecap="round"/>
<path d="M50.5099 105L142.51 197" stroke="white" stroke-width="32" stroke-linecap="round"/>
<path d="M143 196L143 278" stroke="white" stroke-width="32" stroke-linecap="round"/>
<path d="M143 196L317 22" stroke="white" stroke-width="32" stroke-linecap="round"/>
<path d="M178 237H234" stroke="white" stroke-width="32" stroke-linecap="round"/>
<path d="M178 209L178 278" stroke="white" stroke-width="32" stroke-linecap="round"/>
<path d="M178 209L363 24" stroke="white" stroke-width="32" stroke-linecap="round"/>
<path d="M574.456 261.816C567.629 261.816 560.461 261.304 552.952 260.28C545.613 259.427 538.616 258.061 531.96 256.184C525.304 254.307 519.331 252.088 514.04 249.528C509.432 247.309 506.189 244.408 504.312 240.824C502.435 237.069 501.752 233.144 502.264 229.048C502.776 224.952 504.227 221.368 506.616 218.296C509.005 215.053 512.163 212.92 516.088 211.896C520.013 210.701 524.451 211.213 529.4 213.432C535.885 216.504 543.224 218.893 551.416 220.6C559.608 222.307 567.288 223.16 574.456 223.16C585.72 223.16 593.571 221.709 598.008 218.808C602.616 215.736 604.92 211.981 604.92 207.544C604.92 203.619 603.299 200.461 600.056 198.072C596.984 195.683 591.437 193.635 583.416 191.928L553.464 185.528C537.08 182.115 524.877 176.141 516.856 167.608C508.835 159.075 504.824 148.067 504.824 134.584C504.824 125.709 506.616 117.688 510.2 110.52C513.955 103.181 519.16 96.952 525.816 91.832C532.643 86.712 540.664 82.7867 549.88 80.056C559.267 77.1547 569.677 75.704 581.112 75.704C589.987 75.704 598.947 76.728 607.992 78.776C617.208 80.6533 625.144 83.5547 631.8 87.48C635.725 89.528 638.541 92.344 640.248 95.928C641.955 99.512 642.637 103.267 642.296 107.192C641.955 110.947 640.589 114.275 638.2 117.176C635.981 120.077 632.909 122.04 628.984 123.064C625.229 123.917 620.707 123.235 615.416 121.016C610.467 118.797 604.835 117.176 598.52 116.152C592.376 114.957 586.403 114.36 580.6 114.36C574.285 114.36 568.909 115.128 564.472 116.664C560.035 118.029 556.621 120.077 554.232 122.808C552.013 125.539 550.904 128.696 550.904 132.28C550.904 135.864 552.355 138.936 555.256 141.496C558.328 143.885 563.875 145.933 571.896 147.64L601.592 154.04C618.147 157.624 630.52 163.512 638.712 171.704C646.904 179.896 651 190.563 651 203.704C651 212.579 649.208 220.6 645.624 227.768C642.04 234.936 636.92 241.08 630.264 246.2C623.608 251.149 615.587 254.989 606.2 257.72C596.813 260.451 586.232 261.816 574.456 261.816ZM834.424 261.816C816.163 261.816 800.12 257.976 786.296 250.296C772.472 242.445 761.72 231.523 754.04 217.528C746.531 203.533 742.776 187.235 742.776 168.632C742.776 154.637 744.909 141.923 749.176 130.488C753.613 119.053 759.843 109.24 767.864 101.048C776.056 92.856 785.784 86.6267 797.048 82.36C808.312 77.9227 820.771 75.704 834.424 75.704C852.685 75.704 868.643 79.544 882.296 87.224C896.12 94.904 906.872 105.741 914.552 119.736C922.232 133.56 926.072 149.859 926.072 168.632C926.072 182.627 923.853 195.341 919.416 206.776C915.149 218.211 908.92 228.109 900.728 236.472C892.707 244.664 883.064 250.979 871.8 255.416C860.536 259.683 848.077 261.816 834.424 261.816ZM834.424 222.392C843.469 222.392 851.149 220.259 857.464 215.992C863.779 211.725 868.643 205.581 872.056 197.56C875.469 189.539 877.176 179.896 877.176 168.632C877.176 151.736 873.421 138.595 865.912 129.208C858.403 119.821 847.907 115.128 834.424 115.128C825.549 115.128 817.869 117.261 811.384 121.528C805.069 125.624 800.205 131.683 796.792 139.704C793.379 147.555 791.672 157.197 791.672 168.632C791.672 185.528 795.427 198.755 802.936 208.312C810.445 217.699 820.941 222.392 834.424 222.392ZM1118.27 261.816C1098.3 261.816 1081.15 257.976 1066.81 250.296C1052.48 242.616 1041.47 231.779 1033.79 217.784C1026.28 203.789 1022.53 187.405 1022.53 168.632C1022.53 154.637 1024.66 141.923 1028.93 130.488C1033.36 119.053 1039.68 109.24 1047.87 101.048C1056.23 92.856 1066.3 86.6267 1078.08 82.36C1090.02 77.9227 1103.42 75.704 1118.27 75.704C1126.12 75.704 1134.23 76.6427 1142.59 78.52C1151.12 80.2267 1158.63 82.872 1165.12 86.456C1169.9 89.016 1173.22 92.2587 1175.1 96.184C1176.98 100.109 1177.58 104.12 1176.89 108.216C1176.38 112.312 1174.93 115.981 1172.54 119.224C1170.15 122.467 1167.08 124.685 1163.33 125.88C1159.57 126.904 1155.48 126.307 1151.04 124.088C1145.92 121.699 1140.8 119.907 1135.68 118.712C1130.73 117.347 1125.52 116.664 1120.06 116.664C1109.48 116.664 1100.61 118.712 1093.44 122.808C1086.44 126.733 1081.15 132.536 1077.57 140.216C1073.98 147.896 1072.19 157.368 1072.19 168.632C1072.19 179.896 1073.98 189.453 1077.57 197.304C1081.15 204.984 1086.44 210.872 1093.44 214.968C1100.61 218.893 1109.48 220.856 1120.06 220.856C1124.5 220.856 1129.28 220.344 1134.4 219.32C1139.52 218.125 1144.55 216.333 1149.5 213.944C1154.62 211.725 1159.14 211.128 1163.07 212.152C1167.17 213.176 1170.41 215.224 1172.8 218.296C1175.36 221.368 1176.98 224.952 1177.66 229.048C1178.34 232.973 1177.75 236.899 1175.87 240.824C1174.16 244.749 1171.09 247.907 1166.65 250.296C1160.68 253.88 1153.26 256.696 1144.38 258.744C1135.68 260.792 1126.97 261.816 1118.27 261.816ZM1300.19 261.304C1292.68 261.304 1286.87 259.256 1282.78 255.16C1278.68 250.893 1276.63 244.92 1276.63 237.24V100.28C1276.63 92.4293 1278.68 86.456 1282.78 82.36C1286.87 78.264 1292.68 76.216 1300.19 76.216C1307.87 76.216 1313.67 78.264 1317.59 82.36C1321.69 86.456 1323.74 92.4293 1323.74 100.28V237.24C1323.74 244.92 1321.78 250.893 1317.85 255.16C1313.92 259.256 1308.04 261.304 1300.19 261.304ZM1438.08 261.304C1432.79 261.304 1428.35 260.109 1424.77 257.72C1421.19 255.16 1418.97 251.747 1418.11 247.48C1417.26 243.043 1418.03 238.093 1420.42 232.632L1484.16 95.416C1487.23 88.76 1490.99 83.896 1495.43 80.824C1500.03 77.752 1505.24 76.216 1511.04 76.216C1516.84 76.216 1521.88 77.752 1526.15 80.824C1530.58 83.896 1534.42 88.76 1537.67 95.416L1601.41 232.632C1604.14 238.093 1605.08 243.043 1604.23 247.48C1603.54 251.917 1601.41 255.331 1597.83 257.72C1594.41 260.109 1590.15 261.304 1585.03 261.304C1578.2 261.304 1572.91 259.768 1569.15 256.696C1565.57 253.624 1562.33 248.675 1559.43 241.848L1545.6 209.336L1563.52 222.392H1458.05L1476.23 209.336L1462.4 241.848C1459.33 248.675 1456.17 253.624 1452.93 256.696C1449.69 259.768 1444.74 261.304 1438.08 261.304ZM1510.53 127.672L1480.83 198.584L1473.67 186.296H1548.16L1540.99 198.584L1511.04 127.672H1510.53ZM1721.94 259C1714.43 259 1708.54 256.952 1704.28 252.856C1700.18 248.589 1698.13 242.701 1698.13 235.192V102.072C1698.13 94.392 1700.18 88.504 1704.28 84.408C1708.37 80.312 1714.18 78.264 1721.69 78.264C1729.37 78.264 1735.17 80.312 1739.09 84.408C1743.19 88.504 1745.24 94.392 1745.24 102.072V219.832H1807.7C1814.19 219.832 1819.14 221.539 1822.55 224.952C1826.13 228.195 1827.93 232.973 1827.93 239.288C1827.93 245.603 1826.13 250.467 1822.55 253.88C1819.14 257.293 1814.19 259 1807.7 259H1721.94ZM1988.21 261.816C1981.38 261.816 1974.21 261.304 1966.7 260.28C1959.36 259.427 1952.37 258.061 1945.71 256.184C1939.05 254.307 1933.08 252.088 1927.79 249.528C1923.18 247.309 1919.94 244.408 1918.06 240.824C1916.18 237.069 1915.5 233.144 1916.01 229.048C1916.53 224.952 1917.98 221.368 1920.37 218.296C1922.76 215.053 1925.91 212.92 1929.84 211.896C1933.76 210.701 1938.2 211.213 1943.15 213.432C1949.64 216.504 1956.97 218.893 1965.17 220.6C1973.36 222.307 1981.04 223.16 1988.21 223.16C1999.47 223.16 2007.32 221.709 2011.76 218.808C2016.37 215.736 2018.67 211.981 2018.67 207.544C2018.67 203.619 2017.05 200.461 2013.81 198.072C2010.73 195.683 2005.19 193.635 1997.17 191.928L1967.21 185.528C1950.83 182.115 1938.63 176.141 1930.61 167.608C1922.58 159.075 1918.57 148.067 1918.57 134.584C1918.57 125.709 1920.37 117.688 1923.95 110.52C1927.7 103.181 1932.91 96.952 1939.57 91.832C1946.39 86.712 1954.41 82.7867 1963.63 80.056C1973.02 77.1547 1983.43 75.704 1994.86 75.704C2003.74 75.704 2012.7 76.728 2021.74 78.776C2030.96 80.6533 2038.89 83.5547 2045.55 87.48C2049.48 89.528 2052.29 92.344 2054 95.928C2055.7 99.512 2056.39 103.267 2056.05 107.192C2055.7 110.947 2054.34 114.275 2051.95 117.176C2049.73 120.077 2046.66 122.04 2042.73 123.064C2038.98 123.917 2034.46 123.235 2029.17 121.016C2024.22 118.797 2018.58 117.176 2012.27 116.152C2006.13 114.957 2000.15 114.36 1994.35 114.36C1988.04 114.36 1982.66 115.128 1978.22 116.664C1973.78 118.029 1970.37 120.077 1967.98 122.808C1965.76 125.539 1964.65 128.696 1964.65 132.28C1964.65 135.864 1966.1 138.936 1969.01 141.496C1972.08 143.885 1977.62 145.933 1985.65 147.64L2015.34 154.04C2031.9 157.624 2044.27 163.512 2052.46 171.704C2060.65 179.896 2064.75 190.563 2064.75 203.704C2064.75 212.579 2062.96 220.6 2059.37 227.768C2055.79 234.936 2050.67 241.08 2044.01 246.2C2037.36 251.149 2029.34 254.989 2019.95 257.72C2010.56 260.451 1999.98 261.816 1988.21 261.816Z" fill="white"/>
</svg>
